<svg version="1.2" xmlns="http://www.w3.org/2000/svg" viewBox="0 0 4509 1331" width="4510" height="1331">
	<style>
		.s0 { fill: #ffffff } 
	</style>
	<path id="Autoservis" class="s0" d="m4163.48 1084.63l15.52-52.16h51.6l10.25-34.35h-1565.07l-52.45 173.33h1514.27l10.32-34.68h51.63l15.53-52.14zm-1276.4 63.75l-1.73-22.38h-11.57l-2 22.38h-33.47l16.52-124.48h46.78l18.5 124.48zm160.92-41.28q0 14.15-0.9 19.87-0.32 1.61-0.82 3.16-0.51 1.56-1.2 3.05-0.69 1.48-1.56 2.87-0.86 1.39-1.89 2.67-1.16 1.52-2.51 2.88-1.35 1.35-2.87 2.51-1.52 1.16-3.18 2.11-1.66 0.94-3.44 1.65-2.08 0.82-4.24 1.43-2.15 0.62-4.35 1.01-2.21 0.39-4.44 0.57-2.23 0.17-4.47 0.12-2.52 0.05-5.03-0.16-2.52-0.21-5-0.67-2.47-0.47-4.89-1.19-2.42-0.72-4.75-1.68c-5.68-2.45-10-5.65-12.76-9.6q-1.01-1.37-1.84-2.86-0.83-1.49-1.47-3.07-0.63-1.58-1.05-3.23-0.43-1.65-0.64-3.34-0.78-6.55-0.77-27.65v-73.65h32.38v93.35q0 8.14 0.87 10.4 0.2 0.54 0.56 0.99 0.36 0.45 0.84 0.76 0.49 0.31 1.05 0.44 0.56 0.13 1.13 0.08 3.08 0.01 3.94-2.5c0.57-1.68 0.91-5.6 0.91-11.8v-91.72h32.39zm126.56-58.28h-19.23v99.56h-32.33v-99.56h-19.12v-24.92h70.73zm130.15 48q0 18.75-0.9 26.55c-0.29 2.63-0.92 5.21-1.9 7.67-0.97 2.45-2.26 4.77-3.85 6.89-1.58 2.12-3.44 4.01-5.53 5.63-2.08 1.63-4.38 2.96-6.82 3.98q-2.19 0.91-4.45 1.59-2.27 0.68-4.6 1.12-2.32 0.43-4.68 0.63-2.36 0.19-4.73 0.14-2.3 0.03-4.59-0.16-2.29-0.19-4.54-0.6-2.26-0.41-4.47-1.04-2.21-0.63-4.35-1.47c-2.46-0.99-4.79-2.3-6.9-3.9-2.12-1.6-4.02-3.48-5.64-5.58-1.63-2.1-2.97-4.41-3.98-6.86-1.02-2.45-1.71-5.03-2.05-7.66-0.6-5.12-0.93-14.1-0.93-26.9v-21.3q0-18.75 0.91-26.57 0.21-1.92 0.66-3.8 0.46-1.88 1.16-3.69 0.7-1.8 1.63-3.5 0.93-1.7 2.07-3.26 1.2-1.64 2.61-3.1 1.41-1.46 3-2.72 1.6-1.26 3.35-2.29 1.75-1.03 3.62-1.82 2.19-0.9 4.45-1.57 2.27-0.67 4.59-1.11 2.32-0.43 4.68-0.63 2.36-0.19 4.72-0.14 2.3-0.04 4.6 0.15 2.3 0.19 4.56 0.6 2.27 0.42 4.48 1.05 2.22 0.63 4.36 1.48c2.47 0.99 4.79 2.3 6.91 3.9 2.12 1.6 4.02 3.47 5.64 5.57 1.63 2.1 2.96 4.41 3.98 6.86 1.02 2.46 1.7 5.04 2.04 7.67q0.92 7.68 0.93 26.9zm129 39.35q-3.11 6.3-12 10.58-2.43 1.1-4.97 1.93-2.53 0.82-5.15 1.36-2.61 0.54-5.27 0.78-2.65 0.24-5.32 0.18-13 0-22.17-4.92-9.17-4.92-12-12.53-2.85-7.62-2.85-21.6v-8.15h30.02v15.13c0 4.67 0.39 7.67 1.25 9q1.28 2 4.5 2 0.71 0.04 1.41-0.11 0.7-0.16 1.34-0.49 0.63-0.33 1.15-0.82 0.53-0.49 0.9-1.1c1-1.7 1.57-4.2 1.57-7.55q0-11-3-14.37c-2.07-2.26-7.1-6-15.15-11.31-8.05-5.31-13.37-9.2-16-11.6q-1.07-1.05-2.03-2.22-0.95-1.16-1.77-2.42-0.82-1.26-1.5-2.61-0.68-1.34-1.21-2.75-2.58-6.36-2.57-16.3 0-14.28 3.65-20.9c2.45-4.42 6.37-7.85 11.8-10.35q8.15-3.73 19.7-3.72 12.6 0 21.48 4.07c5.92 2.73 9.84 6.13 11.77 10.28 1.93 4.15 2.87 11.12 2.87 21v4.9h-30.06v-9.22c0-4.3-0.38-7-1.15-8.23q-0.32-0.45-0.75-0.8-0.42-0.36-0.93-0.59-0.5-0.23-1.04-0.32-0.55-0.09-1.1-0.04-0.66-0.03-1.31 0.11-0.65 0.15-1.24 0.46-0.58 0.32-1.06 0.78-0.48 0.46-0.82 1.03-1.5 2.4-1.5 7.22 0 6.24 1.67 9.4c1.12 2.1 4.13 4.64 9.13 7.64q21.6 12.81 27.23 21 5.63 8.19 5.62 26.53 0.02 13.33-3.1 19.62zm118.2 12.23h-56.12v-124.5h54v24.92h-21.62v23.6h20.22v23.68h-20.22v27.37h23.83zm125.45-58.58q0.71 0.79 1.33 1.65 0.62 0.86 1.14 1.79 0.52 0.93 0.92 1.91 0.41 0.98 0.71 2 0.83 3.33 0.82 18.4v32.83h-30.07v-41.4q0-10-1.57-12.38-1.57-2.38-8.26-2.4v56.13h-32.37v-124.45h22.99q22.92 0 31 1.77 2.01 0.43 3.9 1.24 1.89 0.82 3.59 1.97 1.7 1.16 3.14 2.62 1.45 1.46 2.59 3.17 5.13 7.25 5.12 23.18c0 9.67-1.2 16.2-3.62 19.52q-3.62 4.99-14.22 6 9.61 2.42 12.9 6.43zm126.75 58.58h-49.11l-18.69-124.48h34.14q5.92 51.45 8.48 87 2.51-36 5.32-63.9l2.26-23.15h34.14zm103.1 0h-32.38v-124.5h32.38zm129.95-12.23q-3.1 6.3-12 10.58-2.44 1.11-4.98 1.94-2.55 0.83-5.17 1.37-2.62 0.54-5.29 0.78-2.66 0.24-5.34 0.18-13 0-22.17-4.92-9.17-4.92-12-12.53-2.85-7.62-2.85-21.6v-8.15h30.07v15.13q0.01 7.01 1.25 9c0.82 1.33 2.35 2 4.51 2q0.72 0.04 1.42-0.12 0.7-0.15 1.33-0.48 0.64-0.33 1.17-0.82 0.52-0.49 0.9-1.1 1.58-2.54 1.58-7.55 0-10.99-3-14.37c-2-2.25-7.1-6-15.15-11.31-8.05-5.31-13.38-9.2-16-11.6q-1.07-1.06-2.02-2.22-0.95-1.16-1.77-2.43-0.82-1.26-1.5-2.6-0.67-1.34-1.2-2.75-2.56-6.36-2.58-16.3 0-14.28 3.65-20.9 3.67-6.61 11.8-10.35c5.42-2.5 12-3.72 19.7-3.72q12.6 0 21.47 4.07c5.93 2.73 9.86 6.13 11.78 10.28 1.92 4.15 2.88 11.12 2.88 21v4.9h-30.05v-9.22c0-4.3-0.41-7-1.18-8.23q-0.32-0.45-0.75-0.8-0.42-0.36-0.93-0.59-0.5-0.23-1.04-0.32-0.55-0.09-1.1-0.04-0.66-0.03-1.31 0.11-0.65 0.15-1.24 0.46-0.58 0.32-1.06 0.78-0.48 0.46-0.82 1.03-1.5 2.4-1.5 7.22-0.01 6.24 1.68 9.4c1.13 2.1 4.12 4.63 9.14 7.61q21.6 12.81 27.23 21 5.63 8.19 5.63 26.53c-0.02 8.9-1.08 15.48-3.15 19.63z"/>
	<path id="kockica2" fill-rule="evenodd" class="s0" d="m4251.15 1136.78l-10.33 34.67h-51.59l10.32-34.67h51.6z"/>
	<path id="kockica1" class="s0" d="m4230.6 1032.47l-15.52 52.16h51.62l15.53-52.16z"/>
	<path id="R_unutra" class="s0" d="m3652.25 1054.83v6.82c0 5.5-0.73 8.72-2.17 9.72q-2.17 1.5-7.66 1.5v-27.67q5.59 0.01 7.73 1.85c1.43 1.22 2.1 3.83 2.1 7.78z"/>
	<path id="O_unutra" class="s0" d="m3272.35 1055.9v57.2q0 11-0.92 13.9-0.19 0.68-0.6 1.25-0.4 0.58-0.98 0.98-0.58 0.4-1.27 0.58-0.68 0.17-1.38 0.11-3.23-0.01-4.13-2.52c-0.6-1.67-0.87-6.15-0.87-13.37v-58.13q0-9.62 1.35-11.58 0.31-0.48 0.74-0.86 0.42-0.39 0.93-0.65 0.51-0.26 1.07-0.39 0.56-0.12 1.13-0.1 0.63-0.07 1.25 0.07 0.61 0.13 1.15 0.46 0.55 0.32 0.96 0.8 0.41 0.48 0.64 1.07c0.58 1.68 0.93 5.38 0.93 11.18z"/>
	<path id="A_unutra" class="s0" d="m2879.58 1051.67q2.46 31.13 4.92 52.28h-11.15q1.28-16.54 6.23-52.28z"/>
	<path id="C_kvacica" fill-rule="evenodd" class="s0" d="m4168.72 353.52l326.28-67.28-19.69 62.84-306.59 4.44z"/>
	<path id="C" fill-rule="evenodd" class="s0" d="m4045.03 801.16l-1.48 5.43h309.17l-45.55 142.95h-302.77l-0.02 0.03h-148.66l40.65-148.41 39.13-142.94 39.56-144.53 39.01-142.46h454.75l-44.97 142.94h-300.25l-39.44 144.05-39.13 142.94z"/>
	<path id="I" fill-rule="evenodd" class="s0" d="m3950.71 371.23l-158.33 578.34h-148.66l40.63-148.41 39.13-142.94 39.62-144.73 38.95-142.26h148.66z"/>
	<path id="V" fill-rule="evenodd" class="s0" d="m3752.14 371.23l-300.96 578.34h-247.29l40.61-148.3 39.13-142.94 39.56-144.53 38.92-142.57h148.66l-38.87 142.37-0.14 0.55-39.47 144.18-30.53 111.51 207.44-398.61h142.94z"/>
	<path id="O" class="s0" d="m3251.25 371.27h-407.17l-39 142.47-39.56 144.52-39.14 143-40.6 148.3h49.37v0.11h405.42l0.18-0.68 158.13-577.63zm-179.6 287.1l-39.12 142.93-1.48 5.32h-157.5l1.5-5.45 39.12-143 39.43-144h157.52z"/>
	<path id="N" class="s0" d="m2803.85 244.5c79.2-28.87 108.83-130.3 58.1-197.85-3.62-4.77-8-9-14.12-15.85-5 25.85-9.65 48.55-13.58 71.3-1.3 7.65-3.9 12.2-12 14.63-17.56 5.27-34.58 12.24-52.18 17.42q-0.82 0.22-1.67 0.35-0.84 0.13-1.69 0.16-0.85 0.03-1.7-0.04-0.85-0.06-1.69-0.22l-0.05 0.15q-0.81-0.22-1.59-0.51-0.78-0.3-1.53-0.68-0.75-0.38-1.45-0.83-0.71-0.46-1.36-0.98c-13.84-12-26.45-25.47-40.24-37.5-6.38-5.57-6.85-10.77-4.85-18.29 5.87-22.35 11-44.93 17.22-70.53-8.43 3.67-14.18 5.7-19.45 8.57-74.15 40.43-89.25 145-29.15 204.13 5.78 5.65 7.38 10.25 6 17.37l-6.7 26.68h-18.82l-98 361.45-1.3 4.8-10.73 39.55-10.15-39.55-1.25-4.8-64.92-252.43h-148.65l-69.12 252.5-1.31 4.8-10.72 39.12-14.67 53.6-100.68 367.78h14c-1.58 7.08-3.13 14.2-4.7 21.27q-0.37 1.35-0.92 2.63-0.54 1.29-1.25 2.49-0.7 1.21-1.56 2.31-0.86 1.1-1.85 2.08c-35.18 15.54-61 50.37-63.9 92.42-4.23 59.82 39.33 111.63 97.23 115.7q4.58 0.32 9.18 0.23 4.59-0.09 9.16-0.59 4.57-0.5 9.07-1.42 4.51-0.91 8.91-2.22c0.93-0.27 1.85-0.58 2.78-0.87q4.28-1.42 8.42-3.19 4.15-1.78 8.12-3.91 3.98-2.13 7.75-4.59 3.78-2.46 7.33-5.24 0.54-0.41 1-0.83c10.77-8.77 19.8-19.47 26.62-31.57 6.83-12.09 11.33-25.36 13.26-39.11 1.94-13.75 1.28-27.74-1.94-41.25-3.22-13.51-8.94-26.29-16.87-37.69-1-1.65-2.17-3.3-3.33-4.9-1.87-2.55-2.89-6.3-3.24-10.15q-0.1-1.07-0.11-2.14-0.02-1.08 0.04-2.15 0.06-1.07 0.19-2.14 0.14-1.07 0.35-2.12c3.1-14.38 6.22-28.7 9.32-43.05h15.58l119.86-437.8 76.65 298.23h148.65l87-321 1.28-4.8 98.07-361.43h-19.8l3.08-9.65c2.02-3.62 5.27-5.93 10.57-7.85zm-580.78 1017.75c-18 6.82-36.94 20.75-53.9 18.6-17.32-2.2-33.54-19-48.54-31.48-7.33-6.09 2.57-64.65 10.29-68.2 17.56-8 36.33-22.27 53.08-20.39 17.17 1.9 33.42 19.07 48.23 31.67 7.59 6.4-2.23 63.92-9.16 69.8z"/>
	<path id="A_2" class="s0" d="m2215.38 371.32v-0.05h-407.2l-39 142.46-39.57 144.52-39.12 142.95-40.6 148.3h148.64l40.23-146.85h157.44l-40.2 146.93h148.67l62.5-228.28 14.68-53.6 81.12-296.38zm-179.68 287l-0.37 1.38h-157.45l0.39-1.45 39.43-144.05h157.45z"/>
	<path id="T" fill-rule="evenodd" class="s0" d="m1744.83 371.22l-39.13 142.96h-169.7l-120.55 435.39h-146.4l120.55-435.39h-188.35l38.97-142.96h504.61z"/>
	<path id="A_1" class="s0" d="m1129.32 371.32v-0.05h-407.2l-39 142.46-39.55 144.52-39.14 142.95-40.63 148.3h148.67l40.21-146.85h157.44l-40.22 146.93h148.65l62.5-228.28 14.67-53.6 81.16-296.38zm-179.67 287l-0.37 1.38h-157.46l0.38-1.45 39.45-144.05h157.45z"/>
	<path id="K" fill-rule="evenodd" class="s0" d="m324.07 662.67l176.46 286.9h-168.33l-116.82-189.93-12.18 44.53-39.94 145.4h-148.66l39.94-145.4 39.13-142.95 39.56-144.53 39-145.43h148.66l-38.95 145.23-0.14 0.56-12.9 47.1 221.45-192.89h168.33l-334.55 291.41h-0.06z"/>
</svg>